<?xml version="1.0" encoding="utf-8"?>
<!-- Generator: Adobe Illustrator 15.0.0, SVG Export Plug-In . SVG Version: 6.00 Build 0)  -->
<!DOCTYPE svg PUBLIC "-//W3C//DTD SVG 1.1//EN" "http://www.w3.org/Graphics/SVG/1.1/DTD/svg11.dtd">
<svg version="1.1"
	 id="Ebene_1" sodipodi:docname="Alias_logo.svg" inkscape:version="0.47 r22583" xmlns:dc="http://purl.org/dc/elements/1.1/" xmlns:cc="http://creativecommons.org/ns#" xmlns:rdf="http://www.w3.org/1999/02/22-rdf-syntax-ns#" xmlns:svg="http://www.w3.org/2000/svg" xmlns:sodipodi="http://sodipodi.sourceforge.net/DTD/sodipodi-0.dtd" xmlns:inkscape="http://www.inkscape.org/namespaces/inkscape"
	 xmlns="http://www.w3.org/2000/svg" xmlns:xlink="http://www.w3.org/1999/xlink" x="0px" y="0px" width="180px" height="180px"
	 viewBox="0 0 180 180" enable-background="new 0 0 180 180" xml:space="preserve">
<defs>
	
	
		<inkscape:perspective  id="perspective23" inkscape:persp3d-origin="306 : 264 : 1" inkscape:vp_z="612 : 396 : 1" inkscape:vp_y="0 : 1000 : 0" inkscape:vp_x="0 : 396 : 1" sodipodi:type="inkscape:persp3d">
		</inkscape:perspective>
</defs>
<sodipodi:namedview  id="namedview17" inkscape:current-layer="Ebene_1" inkscape:window-y="-8" inkscape:window-x="-8" inkscape:window-height="962" inkscape:window-width="1280" inkscape:pageshadow="2" inkscape:pageopacity="0" inkscape:window-maximized="1" inkscape:cy="43.031553" inkscape:cx="94.622213" inkscape:zoom="1.1919192" showgrid="false" guidetolerance="10" gridtolerance="10" objecttolerance="10" borderopacity="1" bordercolor="#666666" pagecolor="#ffffff">
	</sodipodi:namedview>
<rect id="rect3" width="180" height="180"/>
<path id="path5" fill="#FFFFFF" d="M132.997,62.825h2.151c0.592,0,0.92,0.361,1.444,0.595c0.208,0.092,0.755,0.15,1.267,0.286
	c0.634,0.167,0.966,0.383,1.648,0.311c0.506-0.053,1.029-0.191,1.473-0.292c0.467-0.106,0.987,0.005,1.467-0.06
	c0.65-0.088,1.129-0.858,1.889-0.746c0.537,0.079,0.771,0.496,1.348,0.445c0.867-0.076,1.021-0.539,2.115-0.539
	c4.463,0,8.333,0,12.795,0c0.887,0,1.383-0.073,1.383,0.812c0,0.503-0.021,0.672-0.209,1.106c-0.334,0.782-0.301,1.644-0.399,2.568
	c0.052,0.737,0.282,1.485,0.31,2.272c0.016,0.507-0.228,0.99-0.342,1.464c-0.084,0.345,0.141,1.18,0.057,1.925
	c-0.123,1.105-0.024,1.147,0.119,1.539c0.279,0.762,0.488,1.084,0.488,1.906v6.481c0,0.603-0.037,0.564-0.344,1.031
	c-0.543,0.824-0.299,1.769-0.313,2.622c-0.01,0.686-0.414,1.321-0.406,1.9c0.006,0.58,0.426,1.105,0.43,1.754
	c0.001,0.313-0.016,0.605-0.029,0.961c-0.025,0.662-0.059,1.041-0.006,1.35c0.119,0.707,0.646,0.871,0.646,1.65
	c0,7.423,0,14.848,0,22.27c-0.062,0.746-1.875,0.063-2.263,0.242c-0.521,0.299-1.862,0.146-2.788,0.098
	c-1.478-0.08-2.179,0.793-3.877-0.074c-0.71-0.362-1.656-0.282-2.471-0.316c-0.532-0.023-0.876-0.591-1.451-0.591
	c-0.535,0-0.805,0.19-1.146,0.315c-0.948,0.345-1.73,0.726-2.82,0.705c-0.809-0.015-1.527-0.234-2.426-0.045
	c-0.823,0.442-1.352,0.069-2.016,0.194c-1.156,0.011-2.291,0.203-3.449,0.214c-0.769,0.008-1.52-0.307-2.244-0.203
	c-0.477,0.067-0.848-0.068-1.383-0.068c-0.524,0-1.268,0.158-1.701,0.158c-0.655-0.088-0.586-0.5-0.586-1.404V99.729
	c0-1.021,0.607-1.231,0.607-2.39c0-0.708-0.029-1.815,0.053-2.505c0.135-1.135,0.537-1.988,0.366-3.148
	c-0.17-1.144-0.512-2.737-0.53-2.807c-0.209-0.764-0.496-1.149-0.496-1.903v-4.484c0-0.694,0.19-0.581,0.445-1.14
	c0.301-0.661,0.469-1.314,0.469-2.063c0-1.38-0.863-2.059-0.699-3.415c0.131-1.08,0.74-2.212,0.133-3.461
	c-0.283-0.581-0.348-0.557-0.348-1.199c0-2.44,0-4.808,0-7.248C131.357,62.795,131.621,62.825,132.997,62.825L132.997,62.825z"/>
<path id="path7" fill="#FFFFFF" d="M47.649,109.963l-1.281,2.572l-1.153,1.408l-3.458,0.064l-2.369-5.154l-0.576-4.633l-1.665-1.738
	l-2.946,0.063l-0.96-0.896l-5.187,1.023l-1.985,2.307l-0.768,5.123l-0.833,1.793l-2.498,2.112l-2.113-0.384L18,111.574l0.384-3.842
	l0.833-1.346l0.768-4.354l1.537-4.674l0.384-3.01l1.665-4.354l0.192-3.394l2.37-12.615l1.473-6.404l2.177-2.177l5.059,0.192
	l1.857,3.074l0.064,1.164l0.768,0.896l0.064,3.394l1.409,1.793l0.96,4.173l1.088,5.646l0.769,1.153l0.577,5.635l0.96,1.611
	l0.513,3.842l0.96,1.346l0.064,2.113l1.216,1.291l0.064,3.842L47.649,109.963L47.649,109.963z M36.059,94.732V93.58l-0.513-0.448
	l-0.512-2.689l-1.217-2.049l-0.064-2.049l-1.409-3.842l-0.896,0.896l-0.769,5.059l-1.537,3.011v1.344l0.512,1.666l1.665,0.832
	l3.458,0.385L36.059,94.732z"/>
<polygon id="polygon9" fill="#FFFFFF" points="57.703,116.249 56.55,115.48 55.589,114.648 55.013,88.905 55.717,68.285 
	57.511,66.941 61.417,67.261 62.633,68.605 62.441,74.561 61.289,101.521 62.186,103.762 61.417,108.564 61.929,109.717 
	72.623,109.909 75.185,110.742 76.146,112.406 75.761,115.545 72.815,116.762 "/>
<polygon id="polygon11" fill="#FFFFFF" points="85.633,112.279 85.057,86.536 86.082,72.32 86.018,68.478 88.067,66.364 
	89.412,66.621 90.116,66.621 91.014,67.453 91.205,75.649 90.372,77.763 88.771,79.556 90.885,81.605 89.796,84.167 91.461,85.96 
	91.077,90.25 91.333,100.561 91.909,106.451 92.037,111.703 91.141,113.814 87.427,113.879 "/>
<path id="path13" fill="#FFFFFF" d="M130.064,109.963l-1.281,2.572l-1.153,1.408l-3.458,0.064l-2.369-5.154l-0.576-4.633
	l-1.666-1.738l-2.944,0.063l-0.96-0.896l-5.188,1.023l-1.984,2.307l-0.769,5.123l-0.833,1.793l-2.498,2.112l-2.113-0.384
	l-1.856-2.049l0.385-3.842l0.832-1.346l0.769-4.354l1.537-4.674l0.385-3.01l1.664-4.354l0.193-3.394l2.368-12.615l1.474-6.404
	l2.177-2.177l5.059,0.192l1.856,3.074l0.064,1.164l0.77,0.896l0.064,3.394l1.408,1.793l0.96,4.173l1.089,5.646l0.77,1.153
	l0.576,5.635l0.959,1.611l0.513,3.842l0.96,1.346l0.064,2.113l1.217,1.291l0.063,3.842L130.064,109.963L130.064,109.963z
	 M118.475,94.732V93.58l-0.513-0.448l-0.512-2.689l-1.218-2.049l-0.063-2.049l-1.409-3.842l-0.896,0.896l-0.768,5.059l-1.537,3.011
	v1.344l0.512,1.666l1.664,0.832l3.459,0.385L118.475,94.732z"/>
<polygon id="polygon15" points="148.855,113.249 147.254,113.313 144.245,112.16 140.787,109.6 138.93,107.102 138.801,101.594 
	140.529,100.186 143.092,100.568 144.5,102.619 144.82,105.309 148.021,107.293 150.968,106.781 153.018,103.771 153.338,99.93 
	153.273,96.919 151.865,93.525 151.098,92.629 144.5,91.477 141.491,89.427 139.378,86.93 138.354,83.536 138.161,74.058 
	140.273,69.832 143.668,66.63 147.063,65.349 151.673,65.669 154.361,66.822 156.54,69.768 157.053,71.945 156.154,72.905 
	156.219,75.403 155.322,76.299 154.619,76.363 151.417,72.521 150.648,71.689 146.294,72.649 144.629,77.772 145.205,82.511 
	145.27,83.856 148.279,86.289 152.633,87.122 156.154,90.9 156.796,100.249 157.691,101.594 157.82,107.549 155.387,111.456 
	151.993,112.736 "/>
</svg>
